<svg width="36" height="36" viewBox="0 0 36 36" fill="none" xmlns="http://www.w3.org/2000/svg">
<g clip-path="url(#clip0_2_50)">
<path d="M35.9998 18C35.9998 22.7739 34.1034 27.3523 30.7278 30.7279C27.3521 34.1036 22.7737 36 17.9998 36C13.226 36 8.64758 34.1036 5.27193 30.7279C1.89627 27.3523 -0.000152588 22.7739 -0.000152588 18C-0.000152588 13.2261 1.89627 8.64773 5.27193 5.27208C8.64758 1.89642 13.226 0 17.9998 0C22.7737 0 27.3521 1.89642 30.7278 5.27208C34.1034 8.64773 35.9998 13.2261 35.9998 18ZM18.6456 13.2885C16.8951 14.0175 13.3941 15.525 8.1471 17.811C7.2966 18.1485 6.84885 18.4815 6.80835 18.8055C6.74085 19.3522 7.4271 19.5683 8.36085 19.863L8.7546 19.9868C9.6726 20.286 10.9101 20.6348 11.5513 20.6483C12.1363 20.6618 12.7866 20.4233 13.5043 19.9283C18.4071 16.6185 20.9383 14.9467 21.0958 14.9107C21.2083 14.8837 21.3658 14.8523 21.4693 14.9468C21.5751 15.039 21.5638 15.2168 21.5526 15.264C21.4851 15.5542 18.7918 18.0562 17.3991 19.3522C16.9648 19.7572 16.6566 20.043 16.5936 20.1082C16.4549 20.25 16.3139 20.3895 16.1706 20.5268C15.3156 21.3503 14.6766 21.9668 16.2043 22.9748C16.9401 23.4608 17.5296 23.859 18.1168 24.2595C18.7558 24.696 19.3948 25.1303 20.2228 25.6748C20.4321 25.8098 20.6346 25.956 20.8303 26.0955C21.5751 26.6265 22.2478 27.1035 23.0736 27.027C23.5551 26.982 24.0523 26.532 24.3043 25.182C24.9006 21.9938 26.0728 15.0885 26.3428 12.2423C26.3593 12.0056 26.3495 11.7679 26.3136 11.5335C26.2924 11.3443 26.2009 11.17 26.0571 11.0452C25.8524 10.9039 25.6083 10.8307 25.3596 10.836C24.6846 10.8472 23.6428 11.2095 18.6456 13.2885Z" fill="#FF7020"/>
</g>
<defs>
<clipPath id="clip0_2_50">
<rect width="36" height="36" fill="white"/>
</clipPath>
</defs>
</svg>
