<svg width="36" height="36" viewBox="0 0 36 36" fill="none" xmlns="http://www.w3.org/2000/svg">
<g clip-path="url(#clip0_2_48)">
<path d="M17.9998 6.10352e-05C8.0586 6.10352e-05 -0.000152588 8.05881 -0.000152588 18.0001C-0.000152588 27.9413 8.0586 36.0001 17.9998 36.0001C27.9411 36.0001 35.9998 27.9413 35.9998 18.0001C35.9998 8.05881 27.9411 6.10352e-05 17.9998 6.10352e-05ZM24.9223 20.3082C24.9223 20.3082 26.5142 21.8794 26.9061 22.6088C26.9173 22.6238 26.923 22.6388 26.9267 22.6463C27.0861 22.9144 27.1236 23.1226 27.0448 23.2782C26.9136 23.5369 26.4636 23.6644 26.3098 23.6757H23.4973C23.3023 23.6757 22.8936 23.6251 22.3986 23.2838C22.018 23.0176 21.643 22.5807 21.2773 22.1551C20.7317 21.5213 20.2592 20.9738 19.783 20.9738C19.7225 20.9737 19.6624 20.9832 19.6048 21.0019C19.2448 21.1182 18.7836 21.6319 18.7836 23.0007C18.7836 23.4282 18.4461 23.6738 18.208 23.6738H16.9198C16.4811 23.6738 14.1955 23.5201 12.1705 21.3844C9.69172 18.7688 7.46047 13.5226 7.44172 13.4738C7.3011 13.1344 7.59172 12.9526 7.9086 12.9526H10.7492C11.128 12.9526 11.2517 13.1832 11.338 13.3876C11.4392 13.6257 11.8105 14.5726 12.4198 15.6376C13.408 17.3738 14.0136 18.0788 14.4992 18.0788C14.5903 18.0777 14.6797 18.0546 14.7598 18.0113C15.3936 17.6588 15.2755 15.3994 15.2473 14.9307C15.2473 14.8426 15.2455 13.9201 14.9211 13.4776C14.6886 13.1569 14.293 13.0351 14.053 12.9901C14.1501 12.856 14.2781 12.7473 14.4261 12.6732C14.8611 12.4557 15.6448 12.4238 16.423 12.4238H16.8561C17.6998 12.4351 17.9173 12.4894 18.223 12.5663C18.8417 12.7144 18.8548 13.1138 18.8005 14.4807C18.7836 14.8688 18.7667 15.3076 18.7667 15.8251C18.7667 15.9376 18.7611 16.0576 18.7611 16.1851C18.7423 16.8807 18.7198 17.6701 19.2111 17.9944C19.2752 18.0346 19.3492 18.056 19.4248 18.0563C19.5955 18.0563 20.1092 18.0563 21.5005 15.6694C21.9295 14.9012 22.3024 14.1028 22.6161 13.2807C22.6442 13.2319 22.7267 13.0819 22.8242 13.0238C22.8962 12.9871 22.976 12.9685 23.0567 12.9694H26.3961C26.7598 12.9694 27.0092 13.0238 27.0561 13.1644C27.1386 13.3876 27.0411 14.0682 25.5167 16.1326L24.8361 17.0307C23.4542 18.8419 23.4542 18.9338 24.9223 20.3082Z" fill="#FF7020"/>
</g>
<defs>
<clipPath id="clip0_2_48">
<rect width="36" height="36" fill="white"/>
</clipPath>
</defs>
</svg>
